<svg width="16" height="17" viewBox="0 0 16 17" fill="none" xmlns="http://www.w3.org/2000/svg">
<path d="M8.51793 1.019C8.34655 1.00635 8.17477 1.00001 8.00293 1V0C8.19947 9.58276e-05 8.39593 0.00743414 8.59193 0.022L8.51793 1.019ZM10.5219 1.469C10.2014 1.3453 9.87215 1.24537 9.53693 1.17L9.75593 0.194C10.1389 0.28 10.5159 0.394 10.8819 0.536L10.5219 1.469ZM11.8919 2.179C11.749 2.08365 11.6025 1.99359 11.4529 1.909L11.9459 1.039C12.2878 1.23274 12.615 1.45132 12.9249 1.693L12.3099 2.482C12.1744 2.37623 12.0349 2.2755 11.8919 2.18V2.179ZM13.7259 3.969C13.5281 3.68798 13.3099 3.42192 13.0729 3.173L13.7969 2.483C14.0669 2.768 14.3169 3.073 14.5439 3.393L13.7259 3.969ZM14.4699 5.321C14.4043 5.16246 14.3329 5.00636 14.2559 4.853L15.1489 4.403C15.3255 4.75409 15.4759 5.11774 15.5989 5.491L14.6489 5.804C14.5952 5.64087 14.5355 5.47976 14.4699 5.321ZM14.9999 7.828C14.9918 7.48434 14.9584 7.14174 14.8999 6.803L15.8849 6.633C15.9519 7.019 15.9909 7.411 16.0009 7.803L15.0009 7.828H14.9999ZM14.8689 9.366C14.9019 9.196 14.9289 9.027 14.9499 8.856L15.9429 8.979C15.8949 9.36915 15.818 9.75521 15.7129 10.134L14.7489 9.867C14.7949 9.702 14.8349 9.535 14.8689 9.366ZM13.9169 11.745C14.1009 11.455 14.2629 11.151 14.4029 10.837L15.3169 11.242C15.1569 11.602 14.9719 11.948 14.7619 12.28L13.9169 11.745ZM12.9529 12.95C13.0749 12.828 13.1919 12.702 13.3029 12.572L14.0609 13.225C13.9326 13.3738 13.7988 13.5179 13.6599 13.657L12.9529 12.95Z" fill="black"/>
<path d="M8.00312 1C6.852 1.00008 5.71867 1.28405 4.7035 1.82674C3.68833 2.36943 2.82267 3.1541 2.18318 4.11125C1.54369 5.0684 1.15012 6.16848 1.03732 7.31406C0.924518 8.45964 1.09597 9.61536 1.5365 10.6789C1.97703 11.7423 2.67303 12.6808 3.56285 13.4111C4.45267 14.1413 5.50886 14.6409 6.63786 14.8655C7.76686 15.0901 8.93382 15.0328 10.0354 14.6987C11.1369 14.3645 12.1391 13.7639 12.9531 12.95L13.6601 13.657C12.7299 14.5878 11.5844 15.2747 10.3252 15.657C9.06595 16.0393 7.73189 16.105 6.44119 15.8485C5.15048 15.5919 3.94298 15.021 2.92567 14.1862C1.90836 13.3515 1.11266 12.2787 0.609058 11.0629C0.105457 9.84711 -0.0904899 8.52588 0.0385779 7.21627C0.167646 5.90666 0.617743 4.6491 1.34899 3.55502C2.08024 2.46094 3.07006 1.56411 4.23075 0.944003C5.39144 0.323895 6.68717 -0.000348732 8.00312 2.81458e-07V1Z" fill="black"/>
<path d="M7.50293 3C7.63554 3 7.76271 3.05268 7.85648 3.14645C7.95025 3.24021 8.00293 3.36739 8.00293 3.5V8.71L11.2509 10.566C11.3627 10.6334 11.4437 10.7419 11.4766 10.8683C11.5094 10.9946 11.4916 11.1288 11.4268 11.2422C11.362 11.3556 11.2555 11.4391 11.1299 11.4749C11.0044 11.5108 10.8698 11.4961 10.7549 11.434L7.25493 9.434C7.1784 9.39029 7.11479 9.32712 7.07054 9.25091C7.02628 9.17469 7.00296 9.08813 7.00293 9V3.5C7.00293 3.36739 7.05561 3.24021 7.14938 3.14645C7.24314 3.05268 7.37032 3 7.50293 3Z" fill="black"/>
</svg>
