<svg width="24" height="24" viewBox="0 0 24 24" fill="none" xmlns="http://www.w3.org/2000/svg">
<path fill-rule="evenodd" clip-rule="evenodd" d="M12 1.75C6.33908 1.75 1.75 6.33908 1.75 12C1.75 17.6609 6.33908 22.25 12 22.25C17.6609 22.25 22.25 17.6609 22.25 12C22.25 6.33908 17.6609 1.75 12 1.75ZM0.75 12C0.75 5.7868 5.7868 0.75 12 0.75C18.2132 0.75 23.25 5.7868 23.25 12C23.25 18.2132 18.2132 23.25 12 23.25C5.7868 23.25 0.75 18.2132 0.75 12Z" fill="black"/>
<path fill-rule="evenodd" clip-rule="evenodd" d="M11.5 3.5C11.5 3.22386 11.7239 3.00001 12 3C14.1899 2.99995 16.3047 3.79838 17.9482 5.2457C19.5917 6.69302 20.6512 8.68992 20.928 10.8623C20.9629 11.1362 20.7691 11.3866 20.4952 11.4215C20.2213 11.4564 19.9709 11.2626 19.936 10.9887C19.6899 9.05771 18.7482 7.28269 17.2874 5.99618C15.952 4.82019 14.2665 4.12615 12.5 4.01562V10.75C12.5 11.0261 12.2761 11.25 12 11.25C11.7239 11.25 11.5 11.0261 11.5 10.75V3.5ZM12.75 12C12.75 11.7239 12.9739 11.5 13.25 11.5H21.75C22.0261 11.5 22.25 11.7239 22.25 12C22.25 12.2761 22.0261 12.5 21.75 12.5H13.25C12.9739 12.5 12.75 12.2761 12.75 12Z" fill="black"/>
<path fill-rule="evenodd" clip-rule="evenodd" d="M12 11.25C11.5858 11.25 11.25 11.5858 11.25 12C11.25 12.4142 11.5858 12.75 12 12.75C12.4142 12.75 12.75 12.4142 12.75 12C12.75 11.5858 12.4142 11.25 12 11.25ZM10.25 12C10.25 11.0335 11.0335 10.25 12 10.25C12.9665 10.25 13.75 11.0335 13.75 12C13.75 12.9665 12.9665 13.75 12 13.75C11.0335 13.75 10.25 12.9665 10.25 12Z" fill="black"/>
</svg>
