<svg width="18" height="18" viewBox="0 0 18 18" fill="none" xmlns="http://www.w3.org/2000/svg">
<path d="M8.99758 4.38213C6.44215 4.38213 4.3798 6.44452 4.3798 9C4.3798 11.5555 6.44215 13.6179 8.99758 13.6179C11.553 13.6179 13.6154 11.5555 13.6154 9C13.6154 6.44452 11.553 4.38213 8.99758 4.38213ZM8.99758 12.0013C7.345 12.0013 5.99636 10.6526 5.99636 9C5.99636 7.34738 7.345 5.99872 8.99758 5.99872C10.6502 5.99872 11.9988 7.34738 11.9988 9C11.9988 10.6526 10.6502 12.0013 8.99758 12.0013ZM13.8045 3.11677C13.2078 3.11677 12.726 3.5986 12.726 4.19526C12.726 4.79191 13.2078 5.27373 13.8045 5.27373C14.4011 5.27373 14.8829 4.79416 14.8829 4.19526C14.8833 3.90912 14.7698 3.63459 14.5675 3.43226C14.3651 3.22992 14.0906 3.11641 13.8045 3.11677ZM17.999 9C17.999 7.75716 18.0103 6.52558 17.9405 5.28499C17.8707 3.84402 17.5419 2.56515 16.4883 1.51144C15.4323 0.455478 14.1557 0.129005 12.7148 0.0592079C11.472 -0.0105893 10.2404 0.000669944 8.99983 0.000669944C7.75701 0.000669944 6.52546 -0.0105893 5.28489 0.0592079C3.84394 0.129005 2.5651 0.457729 1.51141 1.51144C0.455466 2.5674 0.129006 3.84402 0.05921 5.28499C-0.0105859 6.52783 0.000669358 7.75941 0.000669358 9C0.000669358 10.2406 -0.0105859 11.4744 0.05921 12.715C0.129006 14.156 0.457718 15.4348 1.51141 16.4886C2.56735 17.5445 3.84394 17.871 5.28489 17.9408C6.52771 18.0106 7.75926 17.9993 8.99983 17.9993C10.2426 17.9993 11.4742 18.0106 12.7148 17.9408C14.1557 17.871 15.4346 17.5423 16.4883 16.4886C17.5442 15.4326 17.8707 14.156 17.9405 12.715C18.0125 11.4744 17.999 10.2428 17.999 9ZM16.0177 14.3091C15.8533 14.7189 15.6552 15.0251 15.3377 15.3403C15.0203 15.6577 14.7163 15.8559 14.3066 16.0202C13.1223 16.4908 10.3102 16.385 8.99758 16.385C7.68497 16.385 4.87062 16.4908 3.68634 16.0225C3.27657 15.8581 2.97037 15.66 2.65516 15.3425C2.33771 15.0251 2.13957 14.7211 1.97521 14.3113C1.50691 13.1248 1.61273 10.3126 1.61273 9C1.61273 7.68736 1.50691 4.87296 1.97521 3.68866C2.13957 3.27888 2.33771 2.97268 2.65516 2.65746C2.97262 2.34225 3.27657 2.14187 3.68634 1.97751C4.87062 1.50919 7.68497 1.61501 8.99758 1.61501C10.3102 1.61501 13.1245 1.50919 14.3088 1.97751C14.7186 2.14187 15.0248 2.34 15.34 2.65746C15.6575 2.97493 15.8556 3.27888 16.0199 3.68866C16.4883 4.87296 16.3824 7.68736 16.3824 9C16.3824 10.3126 16.4883 13.1248 16.0177 14.3091Z" fill="black"/>
</svg>
