<svg width="26" height="26" viewBox="0 0 26 26" fill="none" xmlns="http://www.w3.org/2000/svg">
<path fill-rule="evenodd" clip-rule="evenodd" d="M12.4439 0.501294C12.7194 0.520984 12.9267 0.760234 12.907 1.03567C12.8751 1.48143 13.0221 1.92711 13.3537 2.25889L13.3537 2.25894C13.8353 2.74096 14.1058 3.39456 14.1058 4.076C14.1058 4.75744 13.8353 5.41104 13.3537 5.89306C13.0595 6.1875 12.8942 6.58686 12.8942 7.00333C12.8942 7.41981 13.0595 7.81917 13.3537 8.11361C13.8353 8.59563 14.1058 9.24923 14.1058 9.93067C14.1058 10.6121 13.8353 11.2657 13.3537 11.7477C13.1585 11.9431 12.842 11.9432 12.6466 11.7481C12.4513 11.5529 12.4511 11.2363 12.6463 11.0409C12.9405 10.7465 13.1058 10.3471 13.1058 9.93067C13.1058 9.51419 12.9405 9.11483 12.6463 8.82039C12.1647 8.33837 11.8942 7.68477 11.8942 7.00333C11.8942 6.3219 12.1647 5.66829 12.6463 5.18628C12.9405 4.89184 13.1058 4.49247 13.1058 4.076C13.1058 3.65955 12.9405 3.26021 12.6463 2.96578M12.4439 0.501294C12.1685 0.481604 11.9292 0.68893 11.9095 0.964369ZM14.6727 0.602471C14.9487 0.609857 15.1665 0.839622 15.1591 1.11567C15.1535 1.3272 15.1909 1.53767 15.2693 1.73422C15.3476 1.93077 15.4651 2.10928 15.6146 2.25885L15.6147 2.25894C16.0963 2.74096 16.3667 3.39456 16.3667 4.076C16.3667 4.75744 16.0963 5.41104 15.6147 5.89306C15.3205 6.1875 15.1552 6.58686 15.1552 7.00333C15.1552 7.41981 15.3205 7.81917 15.6147 8.11361C16.0963 8.59563 16.3667 9.24923 16.3667 9.93067C16.3667 10.6121 16.0963 11.2657 15.6147 11.7477C15.4195 11.9431 15.1029 11.9432 14.9076 11.7481C14.7122 11.5529 14.7121 11.2363 14.9072 11.0409C15.2014 10.7465 15.3667 10.3471 15.3667 9.93067C15.3667 9.51419 15.2014 9.11483 14.9072 8.82039C14.4257 8.33837 14.1552 7.68477 14.1552 7.00333C14.1552 6.3219 14.4257 5.66829 14.9072 5.18628C15.2014 4.89184 15.3667 4.49247 15.3667 4.076C15.3667 3.65953 15.2014 3.26016 14.9072 2.96572C14.6617 2.72009 14.4688 2.42701 14.3403 2.10436C14.2117 1.78167 14.1502 1.43617 14.1595 1.08892C14.1669 0.812874 14.3966 0.595085 14.6727 0.602471ZM10.0805 0.837067C10.3557 0.814554 10.5971 1.01942 10.6196 1.29464C10.6494 1.65865 10.8065 2.00041 11.0633 2.25975C11.5444 2.74169 11.8146 3.39494 11.8146 4.076C11.8146 4.75744 11.5441 5.41104 11.0625 5.89306C10.7684 6.1875 10.6031 6.58686 10.6031 7.00333C10.6031 7.41981 10.7684 7.81917 11.0625 8.11361C11.5441 8.59563 11.8146 9.24923 11.8146 9.93067C11.8146 10.6121 11.5441 11.2657 11.0625 11.7477C10.8674 11.9431 10.5508 11.9432 10.3554 11.7481C10.1601 11.5529 10.1599 11.2363 10.3551 11.0409C10.6493 10.7465 10.8146 10.3471 10.8146 9.93067C10.8146 9.51419 10.6493 9.11483 10.3551 8.82039C9.87354 8.33837 9.60306 7.68477 9.60306 7.00333C9.60306 6.3219 9.87354 5.66829 10.3551 5.18628C10.6493 4.89184 10.8146 4.49247 10.8146 4.076C10.8146 3.65953 10.6493 3.26016 10.3551 2.96572L10.3537 2.96434C9.9307 2.53759 9.6719 1.97513 9.62291 1.37617C9.60039 1.10094 9.80525 0.85958 10.0805 0.837067ZM11.9095 0.964369C11.8587 1.67627 12.094 2.4131 12.6463 2.96572ZM0.646556 8.14274C0.841879 7.94753 1.15846 7.94763 1.35366 8.14296L4.25021 11.0413C4.44542 11.2366 4.44532 11.5532 4.25 11.7484C4.05467 11.9436 3.73809 11.9435 3.54289 11.7482L0.646337 8.84984C0.451135 8.65452 0.451234 8.33794 0.646556 8.14274ZM0.5 12.9926C0.5 12.7164 0.723858 12.4926 1 12.4926H25C25.2761 12.4926 25.5 12.7164 25.5 12.9926C25.5 19.9003 19.9042 25.5 13 25.5C6.09584 25.5 0.5 19.9003 0.5 12.9926ZM1.51066 13.4926C1.77225 19.6165 6.81611 24.5 13 24.5C19.1839 24.5 24.2278 19.6165 24.4893 13.4926H1.51066Z" fill="black"/>
</svg>
