<svg width="26" height="26" viewBox="0 0 26 26" fill="none" xmlns="http://www.w3.org/2000/svg">
<path d="M1 8.49638L3.89655 11.3947M10.1212 1.33538C10.1606 1.817 10.3687 2.26923 10.7088 2.61231C11.0967 3.00054 11.3146 3.52702 11.3146 4.07598C11.3146 4.62493 11.0967 5.15142 10.7088 5.53965C10.321 5.92787 10.1031 6.45436 10.1031 7.00331C10.1031 7.55227 10.321 8.07875 10.7088 8.46698C11.0967 8.85521 11.3146 9.38169 11.3146 9.93065C11.3146 10.4796 11.0967 11.0061 10.7088 11.3943M12.4083 1C12.3669 1.57884 12.5581 2.17011 13 2.61231C13.3879 3.00054 13.6058 3.52702 13.6058 4.07598C13.6058 4.62493 13.3879 5.15142 13 5.53965C12.6121 5.92787 12.3942 6.45436 12.3942 7.00331C12.3942 7.55227 12.6121 8.07875 13 8.46698C13.3879 8.85521 13.6058 9.38169 13.6058 9.93065C13.6058 10.4796 13.3879 11.0061 13 11.3943M14.6593 1.10227C14.6518 1.38166 14.7013 1.65965 14.8048 1.91927C14.9082 2.17889 15.0634 2.4147 15.261 2.61231C15.6488 3.00054 15.8667 3.52702 15.8667 4.07598C15.8667 4.62493 15.6488 5.15142 15.261 5.53965C14.8731 5.92787 14.6552 6.45436 14.6552 7.00331C14.6552 7.55227 14.8731 8.07875 15.261 8.46698C15.6488 8.85521 15.8667 9.38169 15.8667 9.93065C15.8667 10.4796 15.6488 11.0061 15.261 11.3943M1 12.9925C1 19.6244 6.37228 25 13 25C19.6277 25 25 19.6244 25 12.9925H1Z" stroke="black" stroke-miterlimit="10" stroke-linecap="round" stroke-linejoin="round"/>
</svg>
